<svg width="106" height="106" viewBox="0 0 106 106" fill="none" xmlns="http://www.w3.org/2000/svg">
<path d="M33.612 50.8V48.607H37.709V61H35.261V50.8H33.612ZM40.4002 54.642C40.4002 52.6813 40.7515 51.1457 41.4542 50.035C42.1682 48.9243 43.3468 48.369 44.9902 48.369C46.6335 48.369 47.8065 48.9243 48.5092 50.035C49.2232 51.1457 49.5802 52.6813 49.5802 54.642C49.5802 56.614 49.2232 58.161 48.5092 59.283C47.8065 60.405 46.6335 60.966 44.9902 60.966C43.3468 60.966 42.1682 60.405 41.4542 59.283C40.7515 58.161 40.4002 56.614 40.4002 54.642ZM47.2342 54.642C47.2342 53.8033 47.1775 53.1007 47.0642 52.534C46.9622 51.956 46.7468 51.4857 46.4182 51.123C46.1008 50.7603 45.6248 50.579 44.9902 50.579C44.3555 50.579 43.8738 50.7603 43.5452 51.123C43.2278 51.4857 43.0125 51.956 42.8992 52.534C42.7972 53.1007 42.7462 53.8033 42.7462 54.642C42.7462 55.5033 42.7972 56.2287 42.8992 56.818C43.0012 57.396 43.2165 57.8663 43.5452 58.229C43.8738 58.5803 44.3555 58.756 44.9902 58.756C45.6248 58.756 46.1065 58.5803 46.4352 58.229C46.7638 57.8663 46.9792 57.396 47.0812 56.818C47.1832 56.2287 47.2342 55.5033 47.2342 54.642ZM51.7304 54.642C51.7304 52.6813 52.0817 51.1457 52.7844 50.035C53.4984 48.9243 54.6771 48.369 56.3204 48.369C57.9637 48.369 59.1367 48.9243 59.8394 50.035C60.5534 51.1457 60.9104 52.6813 60.9104 54.642C60.9104 56.614 60.5534 58.161 59.8394 59.283C59.1367 60.405 57.9637 60.966 56.3204 60.966C54.6771 60.966 53.4984 60.405 52.7844 59.283C52.0817 58.161 51.7304 56.614 51.7304 54.642ZM58.5644 54.642C58.5644 53.8033 58.5077 53.1007 58.3944 52.534C58.2924 51.956 58.0771 51.4857 57.7484 51.123C57.4311 50.7603 56.9551 50.579 56.3204 50.579C55.6857 50.579 55.2041 50.7603 54.8754 51.123C54.5581 51.4857 54.3427 51.956 54.2294 52.534C54.1274 53.1007 54.0764 53.8033 54.0764 54.642C54.0764 55.5033 54.1274 56.2287 54.2294 56.818C54.3314 57.396 54.5467 57.8663 54.8754 58.229C55.2041 58.5803 55.6857 58.756 56.3204 58.756C56.9551 58.756 57.4367 58.5803 57.7654 58.229C58.0941 57.8663 58.3094 57.396 58.4114 56.818C58.5134 56.2287 58.5644 55.5033 58.5644 54.642ZM62.7886 51.65C62.7886 50.7887 63.038 50.1143 63.5366 49.627C64.0466 49.1397 64.6983 48.896 65.4916 48.896C66.285 48.896 66.931 49.1397 67.4296 49.627C67.9396 50.1143 68.1946 50.7887 68.1946 51.65C68.1946 52.5227 67.9396 53.2027 67.4296 53.69C66.931 54.1773 66.285 54.421 65.4916 54.421C64.6983 54.421 64.0466 54.1773 63.5366 53.69C63.038 53.2027 62.7886 52.5227 62.7886 51.65ZM73.7026 49.1L67.0216 61H64.7096L71.3736 49.1H73.7026ZM65.4746 50.324C64.8513 50.324 64.5396 50.766 64.5396 51.65C64.5396 52.5453 64.8513 52.993 65.4746 52.993C65.7806 52.993 66.0186 52.8853 66.1886 52.67C66.3586 52.4433 66.4436 52.1033 66.4436 51.65C66.4436 50.766 66.1206 50.324 65.4746 50.324ZM70.2516 58.433C70.2516 57.5603 70.501 56.886 70.9996 56.41C71.5096 55.9227 72.1613 55.679 72.9546 55.679C73.748 55.679 74.3883 55.9227 74.8756 56.41C75.3743 56.886 75.6236 57.5603 75.6236 58.433C75.6236 59.3057 75.3743 59.9857 74.8756 60.473C74.3883 60.9603 73.748 61.204 72.9546 61.204C72.15 61.204 71.4983 60.9603 70.9996 60.473C70.501 59.9857 70.2516 59.3057 70.2516 58.433ZM72.9376 57.107C72.2916 57.107 71.9686 57.549 71.9686 58.433C71.9686 59.3283 72.2916 59.776 72.9376 59.776C73.5723 59.776 73.8896 59.3283 73.8896 58.433C73.8896 57.549 73.5723 57.107 72.9376 57.107Z" fill="#6ECADF"/>
<g filter="url(#filter0_di_1_41)">
<circle cx="53" cy="53" r="40" stroke="#6ECADF" stroke-width="10" shape-rendering="crispEdges"/>
</g>
<defs>
<filter id="filter0_di_1_41" x="0" y="0" width="106" height="106" filterUnits="userSpaceOnUse" color-interpolation-filters="sRGB">
<feFlood flood-opacity="0" result="BackgroundImageFix"/>
<feColorMatrix in="SourceAlpha" type="matrix" values="0 0 0 0 0 0 0 0 0 0 0 0 0 0 0 0 0 0 127 0" result="hardAlpha"/>
<feOffset/>
<feGaussianBlur stdDeviation="4"/>
<feComposite in2="hardAlpha" operator="out"/>
<feColorMatrix type="matrix" values="0 0 0 0 0 0 0 0 0 0 0 0 0 0 0 0 0 0 0.25 0"/>
<feBlend mode="normal" in2="BackgroundImageFix" result="effect1_dropShadow_1_41"/>
<feBlend mode="normal" in="SourceGraphic" in2="effect1_dropShadow_1_41" result="shape"/>
<feColorMatrix in="SourceAlpha" type="matrix" values="0 0 0 0 0 0 0 0 0 0 0 0 0 0 0 0 0 0 127 0" result="hardAlpha"/>
<feOffset dy="-5"/>
<feGaussianBlur stdDeviation="2"/>
<feComposite in2="hardAlpha" operator="arithmetic" k2="-1" k3="1"/>
<feColorMatrix type="matrix" values="0 0 0 0 0 0 0 0 0 0 0 0 0 0 0 0 0 0 0.25 0"/>
<feBlend mode="normal" in2="shape" result="effect2_innerShadow_1_41"/>
</filter>
</defs>
</svg>
