<svg width="25" height="25" viewBox="0 0 25 25" fill="none" xmlns="http://www.w3.org/2000/svg">
<path d="M21.2708 10.6042L13.2396 2.39586C13.1427 2.29823 13.0275 2.22073 12.9006 2.16785C12.7737 2.11497 12.6375 2.08774 12.5 2.08774C12.3625 2.08774 12.2263 2.11497 12.0994 2.16785C11.9725 2.22073 11.8573 2.29823 11.7604 2.39586L3.72916 10.6146C3.53483 10.8105 3.38135 11.0431 3.27763 11.2988C3.17392 11.5545 3.12203 11.8283 3.125 12.1042V20.8334C3.12419 21.3666 3.32789 21.8799 3.69414 22.2674C4.06039 22.655 4.56131 22.8874 5.09375 22.9167H19.9062C20.4387 22.8874 20.9396 22.655 21.3059 22.2674C21.6721 21.8799 21.8758 21.3666 21.875 20.8334V12.1042C21.8758 11.5448 21.6592 11.0069 21.2708 10.6042ZM10.4167 20.8334V14.5834H14.5833V20.8334H10.4167ZM19.7917 20.8334H16.6667V13.5417C16.6667 13.2654 16.5569 13.0005 16.3616 12.8051C16.1662 12.6098 15.9013 12.5 15.625 12.5H9.375C9.09873 12.5 8.83378 12.6098 8.63843 12.8051C8.44308 13.0005 8.33333 13.2654 8.33333 13.5417V20.8334H5.20833V12.0625L12.5 4.61461L19.7917 12.1042V20.8334Z" fill="white" fill-opacity="0.7"/>
</svg>
