<svg width="25" height="25" viewBox="0 0 25 25" fill="none" xmlns="http://www.w3.org/2000/svg">
<path d="M12.5 11.4583C13.3241 11.4583 14.1297 11.214 14.8149 10.7561C15.5001 10.2983 16.0341 9.64754 16.3495 8.88618C16.6649 8.12483 16.7474 7.28705 16.5866 6.47879C16.4258 5.67054 16.029 4.92811 15.4463 4.34539C14.8635 3.76267 14.1211 3.36583 13.3129 3.20506C12.5046 3.04429 11.6668 3.12681 10.9055 3.44217C10.1441 3.75754 9.49337 4.29159 9.03553 4.97679C8.57769 5.662 8.33332 6.46758 8.33332 7.29167C8.33332 8.39674 8.77231 9.45655 9.55371 10.2379C10.3351 11.0193 11.3949 11.4583 12.5 11.4583ZM12.5 5.20834C12.912 5.20834 13.3148 5.33052 13.6574 5.55944C14 5.78836 14.2671 6.11373 14.4247 6.49441C14.5824 6.87509 14.6237 7.29398 14.5433 7.69811C14.4629 8.10223 14.2645 8.47345 13.9731 8.76481C13.6818 9.05617 13.3106 9.25459 12.9064 9.33497C12.5023 9.41536 12.0834 9.3741 11.7027 9.21642C11.3221 9.05874 10.9967 8.79171 10.7678 8.44911C10.5388 8.1065 10.4167 7.70371 10.4167 7.29167C10.4167 6.73913 10.6361 6.20923 11.0268 5.81853C11.4175 5.42783 11.9475 5.20834 12.5 5.20834Z" fill="white" fill-opacity="0.7"/>
<path d="M12.5 13.5417C10.5661 13.5417 8.71145 14.3099 7.344 15.6774C5.97655 17.0448 5.20832 18.8995 5.20832 20.8334C5.20832 21.1096 5.31807 21.3746 5.51342 21.5699C5.70877 21.7653 5.97372 21.875 6.24999 21.875C6.52625 21.875 6.79121 21.7653 6.98656 21.5699C7.18191 21.3746 7.29165 21.1096 7.29165 20.8334C7.29165 19.452 7.84039 18.1273 8.81714 17.1505C9.79389 16.1738 11.1187 15.625 12.5 15.625C13.8813 15.625 15.2061 16.1738 16.1828 17.1505C17.1596 18.1273 17.7083 19.452 17.7083 20.8334C17.7083 21.1096 17.8181 21.3746 18.0134 21.5699C18.2088 21.7653 18.4737 21.875 18.75 21.875C19.0263 21.875 19.2912 21.7653 19.4866 21.5699C19.6819 21.3746 19.7917 21.1096 19.7917 20.8334C19.7917 18.8995 19.0234 17.0448 17.656 15.6774C16.2885 14.3099 14.4339 13.5417 12.5 13.5417Z" fill="white" fill-opacity="0.7"/>
</svg>
