<svg width="25" height="25" viewBox="0 0 25 25" fill="none" xmlns="http://www.w3.org/2000/svg">
<path d="M13.5417 2.08331C13.2654 2.08331 13.0004 2.19306 12.8051 2.38841C12.6097 2.58376 12.5 2.84871 12.5 3.12498V11.4583C12.5 11.7346 12.6097 11.9995 12.8051 12.1949C13.0004 12.3902 13.2654 12.5 13.5417 12.5H21.875C22.1513 12.5 22.4162 12.3902 22.6116 12.1949C22.8069 11.9995 22.9167 11.7346 22.9167 11.4583C22.9167 8.97191 21.9289 6.58734 20.1708 4.82919C18.4126 3.07103 16.0281 2.08331 13.5417 2.08331ZM14.5833 10.4166V4.23956C16.1419 4.46416 17.5858 5.18725 18.6993 6.30069C19.8127 7.41413 20.5358 8.8581 20.7604 10.4166H14.5833Z" fill="white" fill-opacity="0.7"/>
<path d="M21.6875 14.6458C21.5583 14.5996 21.4212 14.5794 21.2841 14.5864C21.147 14.5933 21.0126 14.6273 20.8887 14.6864C20.7648 14.7454 20.6538 14.8284 20.5621 14.9304C20.4703 15.0325 20.3997 15.1517 20.3542 15.2812C19.8847 16.6082 19.0868 17.7947 18.0349 18.73C16.9829 19.6652 15.7112 20.3187 14.3384 20.6296C12.9656 20.9405 11.5364 20.8986 10.1841 20.5077C8.83187 20.1169 7.60067 19.3899 6.60535 18.3946C5.61004 17.3993 4.88306 16.1681 4.49224 14.8159C4.10141 13.4636 4.05948 12.0344 4.37036 10.6616C4.68123 9.28878 5.33478 8.01706 6.27003 6.96511C7.20528 5.91316 8.39175 5.11525 9.71875 4.64582C9.97982 4.55465 10.194 4.36351 10.3141 4.11443C10.4343 3.86536 10.4505 3.57877 10.3594 3.31769C10.2682 3.05662 10.0771 2.84246 9.82799 2.72232C9.57891 2.60218 9.29232 2.5859 9.03125 2.67707C7.37191 3.2633 5.88815 4.26036 4.71845 5.57521C3.54874 6.89007 2.73123 8.47983 2.3422 10.1961C1.95318 11.9124 2.00533 13.6993 2.49379 15.39C2.98224 17.0807 3.89108 18.6201 5.13548 19.8645C6.37987 21.1089 7.91926 22.0177 9.60995 22.5062C11.3006 22.9946 13.0875 23.0468 14.8038 22.6578C16.5201 22.2688 18.1099 21.4512 19.4248 20.2815C20.7396 19.1118 21.7367 17.6281 22.3229 15.9687C22.413 15.709 22.3968 15.4242 22.2777 15.1764C22.1587 14.9286 21.9465 14.7379 21.6875 14.6458Z" fill="white" fill-opacity="0.7"/>
</svg>
