<svg width="25" height="25" viewBox="0 0 25 25" fill="none" xmlns="http://www.w3.org/2000/svg">
<path d="M12.5 4.16669C12.2237 4.16669 11.9588 4.27643 11.7634 4.47178C11.5681 4.66713 11.4583 4.93209 11.4583 5.20835V20.8334C11.4583 21.1096 11.5681 21.3746 11.7634 21.5699C11.9588 21.7653 12.2237 21.875 12.5 21.875C12.7763 21.875 13.0412 21.7653 13.2366 21.5699C13.4319 21.3746 13.5417 21.1096 13.5417 20.8334V5.20835C13.5417 4.93209 13.4319 4.66713 13.2366 4.47178C13.0412 4.27643 12.7763 4.16669 12.5 4.16669Z" fill="white"/>
<path d="M19.7917 12.5C19.5154 12.5 19.2504 12.6097 19.0551 12.8051C18.8597 13.0004 18.75 13.2654 18.75 13.5417V20.8333C18.75 21.1096 18.8597 21.3746 19.0551 21.5699C19.2504 21.7653 19.5154 21.875 19.7917 21.875C20.0679 21.875 20.3329 21.7653 20.5282 21.5699C20.7236 21.3746 20.8333 21.1096 20.8333 20.8333V13.5417C20.8333 13.2654 20.7236 13.0004 20.5282 12.8051C20.3329 12.6097 20.0679 12.5 19.7917 12.5Z" fill="white"/>
<path d="M5.20833 8.33331C4.93206 8.33331 4.66711 8.44306 4.47176 8.63841C4.27641 8.83376 4.16666 9.09871 4.16666 9.37498V20.8333C4.16666 21.1096 4.27641 21.3745 4.47176 21.5699C4.66711 21.7652 4.93206 21.875 5.20833 21.875C5.4846 21.875 5.74955 21.7652 5.9449 21.5699C6.14025 21.3745 6.25 21.1096 6.25 20.8333V9.37498C6.25 9.09871 6.14025 8.83376 5.9449 8.63841C5.74955 8.44306 5.4846 8.33331 5.20833 8.33331Z" fill="white"/>
</svg>
